# xmcd
#
# Track frame offsets:
#	150
#	17131
#	37768
#	53537
#	69358
#	88821
#	102715
#	116556
#	133875
#	148247
#	164699
#
# Disc length: 2500 seconds
#
# Revision: 0
# Processed by: cddbd v1.5.1PL0 Copyright (c) Steve Scherf et al.
# Submitted via: EasyCDDAExtractor 7.5.0.1
#
DISCID=9d09c20b
DTITLE=paula frazer - leave the sad things behind
DYEAR=2005
DGENRE=country
TTITLE0=always on my mind
TTITLE1=watercolor lines
TTITLE2=waiting for you
TTITLE3=it's not ordinary
TTITLE4=long ago
TTITLE5=leave the sad things behind
TTITLE6=no other
TTITLE7=taken
TTITLE8=funny things
TTITLE9=where did time go
TTITLE10=[untitled bonus track]
EXTD=
EXTT0=
EXTT1=
EXTT2=
EXTT3=
EXTT4=
EXTT5=
EXTT6=
EXTT7=
EXTT8=
EXTT9=
EXTT10=
PLAYORDER=
